<svg width="32" height="32" viewBox="0 0 32 32" fill="none" xmlns="http://www.w3.org/2000/svg">
    <g clip-path="url(#7q7wqwmnua)" fill="#fff">
        <circle cx="16" cy="16" r="16" fill-opacity=".1"/>
        <path d="M20.143 10.64a.96.96 0 1 0 0 1.92.96.96 0 0 0 0-1.92zm3.68 1.935a6.074 6.074 0 0 0-.368-1.944 3.952 3.952 0 0 0-.928-1.416 3.76 3.76 0 0 0-1.416-.92 5.84 5.84 0 0 0-1.944-.376c-.848-.048-1.12-.048-3.296-.048-2.176 0-2.448 0-3.296.048a5.84 5.84 0 0 0-1.944.376 3.824 3.824 0 0 0-1.416.92 3.76 3.76 0 0 0-.92 1.416 5.84 5.84 0 0 0-.376 1.944c-.048.848-.048 1.12-.048 3.296 0 2.176 0 2.448.048 3.296a5.84 5.84 0 0 0 .376 1.944c.195.536.51 1.02.92 1.416.398.408.881.723 1.416.92a5.84 5.84 0 0 0 1.944.376c.848.048 1.12.048 3.296.048 2.176 0 2.448 0 3.296-.048a5.84 5.84 0 0 0 1.944-.376 3.76 3.76 0 0 0 1.416-.92c.41-.398.727-.881.928-1.416.228-.623.352-1.28.368-1.944 0-.848.048-1.12.048-3.296 0-2.176 0-2.448-.048-3.296zm-1.44 6.496a4.49 4.49 0 0 1-.272 1.488 2.45 2.45 0 0 1-.6.92c-.26.265-.573.47-.92.6-.477.174-.98.266-1.488.272-.8.04-1.096.048-3.2.048s-2.4 0-3.2-.048a4.583 4.583 0 0 1-1.552-.24 2.616 2.616 0 0 1-.88-.6 2.4 2.4 0 0 1-.592-.92 4.433 4.433 0 0 1-.32-1.52c0-.8-.048-1.096-.048-3.2s0-2.4.048-3.2c.004-.52.098-1.034.28-1.52a2.4 2.4 0 0 1 .632-.88c.243-.275.543-.493.88-.64a4.584 4.584 0 0 1 1.52-.272c.8 0 1.096-.048 3.2-.048s2.4 0 3.2.048c.508.006 1.01.098 1.488.272.363.135.69.354.952.64.262.246.467.546.6.88.178.487.27 1.002.272 1.52.04.8.048 1.096.048 3.2s-.008 2.4-.048 3.2zm-6.512-7.304a4.104 4.104 0 1 0 3.801 2.53 4.097 4.097 0 0 0-3.801-2.53zm0 6.768a2.664 2.664 0 1 1 0-5.327 2.664 2.664 0 0 1 0 5.327z"/>
    </g>
    <defs>
        <clipPath id="7q7wqwmnua">
            <path fill="#fff" d="M0 0h32v32H0z"/>
        </clipPath>
    </defs>
</svg>
