<svg width="32" height="32" viewBox="0 0 32 32" fill="none" xmlns="http://www.w3.org/2000/svg">
    <g clip-path="url(#54u0egs31a)" fill="#fff">
        <circle cx="16" cy="16" r="16" fill-opacity=".1"/>
        <path d="M25.654 9.767c-.738.32-1.52.532-2.319.629a4.059 4.059 0 0 0 1.779-2.231 8.068 8.068 0 0 1-2.565.982 4.029 4.029 0 0 0-6.879 3.676 11.44 11.44 0 0 1-8.304-4.216 4.088 4.088 0 0 0-.54 2.034 4.02 4.02 0 0 0 1.788 3.351 3.98 3.98 0 0 1-1.828-.5v.048a4.03 4.03 0 0 0 3.243 3.931c-.35.107-.714.163-1.08.167a4.823 4.823 0 0 1-.758-.069 4.039 4.039 0 0 0 3.764 2.791A8.077 8.077 0 0 1 6 22.031a11.37 11.37 0 0 0 6.181 1.818A11.39 11.39 0 0 0 23.69 12.371v-.521a8.285 8.285 0 0 0 1.965-2.083z"/>
    </g>
    <defs>
        <clipPath id="54u0egs31a">
            <path fill="#fff" d="M0 0h32v32H0z"/>
        </clipPath>
    </defs>
</svg>
